<?xml version="1.0" encoding="UTF-8"?>
<svg id="Layer_2" data-name="Layer 2" xmlns="http://www.w3.org/2000/svg" viewBox="0 0 16 15.92" width="32" height="32">
  <defs>
    <style>
      .cls-1 {
        fill: #fff;
      }
    </style>
  </defs>
  <g id="Layer_1-2" data-name="Layer 1">
    <g transform="translate(2 2) scale(.76)">
      <path class="cls-1" d="M10.54,15.83c-.49-.2-.59-.63-1.66-1.37-.68-.47-1.31-.75-1.74-.92,1.02-.57,2.38-1.46,3.74-2.82,1.34-1.35,2.22-2.69,2.79-3.7.14.44.38,1.07.81,1.75.72,1.14,1.23,1.25,1.44,1.8.72,1.92-3.49,6.02-5.38,5.27Z"/>
      <path class="cls-1" d="M10.72,9.73l-3.49-3.49c.11-.43,0-.9-.33-1.24-.52-.52-1.36-.51-1.87,0-.52.52-.51,1.36,0,1.87.37.36.88.45,1.34.29l3.46,3.46c-.63.58-1.25,1.05-1.81,1.42-1.38-.91-2.96-1.22-4.71-.95,0,0-.45-2.61-1.1-5.09C1.55,3.52,0,0,0,0c1.71.76,3.71,1.58,5.98,2.23,2.15.62,5.13,1.01,5.13,1.01-.51,1.77-.22,3.37.94,4.79-.36.53-.79,1.11-1.33,1.69Z"/>
    </g>
  </g>
</svg>
